Coordinates
version=1
nRows=12
nColumns=46
inDegrees=yes

Units are S.I. units (second, meters, Newtons, ...)
Angles are in degrees.

endheader
time	pelvis_tilt	pelvis_list	pelvis_rotation	pelvis_tx	pelvis_ty	pelvis_tz	bb_angle	bb_tx	bb_ty	bb_tz	hip_flexion_r	hip_adduction_r	hip_rotation_r	knee_angle_r	knee_angle_r_beta	ankle_angle_r	subtalar_angle_r	mtp_angle_r	crank_angle_r	hip_flexion_l	hip_adduction_l	hip_rotation_l	knee_angle_l	knee_angle_l_beta	ankle_angle_l	subtalar_angle_l	mtp_angle_l	crank_angle_l	lumbar_extension	lumbar_bending	lumbar_rotation	arm_flex_r	arm_add_r	arm_rot_r	elbow_flex_r	pro_sup_r	wrist_flex_r	wrist_dev_r	arm_flex_l	arm_add_l	arm_rot_l	elbow_flex_l	pro_sup_l	wrist_flex_l	wrist_dev_l
      5.00000000	     -8.22134475	     -2.29163163	     -3.44458483	      0.17997111	      1.06479190	     -0.32519974	      0.00000000	      0.50000000	      0.00000000	      0.25000000	     64.16630648	     -0.85343449	      1.70577049	     66.70670117	      1.16425157	      6.96292686	    -10.17043398	      0.00000000	      0.00000000	     54.02975203	     -8.47493022	      3.90483648	     89.33581880	      1.55920418	    -13.74181863	     -8.20944161	      0.00000000	      0.00000000	    -69.15623572	     -0.13466125	      2.78828336	     89.65045181	     -5.08522598	     24.18213619	     47.74496288	     24.17793911	      0.00000000	      0.00000000	     87.13803488	    -10.68402425	     24.79428637	     44.82619940	     37.06915205	      0.00000000	      0.00000000
      5.00500000	     -8.16960782	     -2.30482459	     -3.39421031	      0.18047859	      1.06297633	     -0.32426336	      0.00000000	      0.50000000	      0.00000000	      0.25000000	     63.01785090	     -0.91301258	      1.33070390	     64.78947012	      1.13078957	      4.85830099	    -10.75186627	      0.00000000	      0.00000000	     55.40039292	     -8.39464609	      4.46236031	     92.02132357	      1.60607508	    -12.60672090	     -7.76899210	      0.00000000	      0.00000000	    -69.03064253	     -0.11672811	      2.76970795	     89.65239653	     -5.19642759	     24.95135099	     47.44435362	     24.17017351	      0.00000000	      0.00000000	     87.07272564	    -11.14656862	     25.64203442	     45.10059382	     37.24379929	      0.00000000	      0.00000000
      5.01000000	     -7.94566324	     -1.72931422	     -3.31836790	      0.18106024	      1.06164776	     -0.32349560	      0.00000000	      0.50000000	      0.00000000	      0.25000000	     61.76475777	     -1.29767639	      1.72009732	     63.09243122	      1.10117066	      3.59378266	    -10.26755299	      0.00000000	      0.00000000	     56.41026337	     -7.76484836	      4.47690511	     94.40429572	      1.64766579	    -11.99166284	     -8.10285407	      0.00000000	      0.00000000	    -69.08930187	     -0.50343990	      2.16571575	     89.63626648	     -5.41987461	     24.97103545	     47.41561377	     24.16803610	      0.00000000	      0.00000000	     87.07563524	    -11.09163064	     25.76515267	     45.14158303	     37.26785377	      0.00000000	      0.00000000
      5.01500000	     -7.71399332	     -1.50993833	     -3.18986439	      0.18160211	      1.06068034	     -0.32254691	      0.00000000	      0.50000000	      0.00000000	      0.25000000	     60.35276071	     -1.53137000	      1.63500449	     61.14812294	      1.06723608	      1.47462539	    -10.15279653	      0.00000000	      0.00000000	     57.45111330	     -7.43485970	      4.77516750	     96.73874727	      1.68840965	    -10.88994619	     -8.10660183	      0.00000000	      0.00000000	    -69.21711431	     -0.61055763	      1.99502784	     89.63669920	     -5.64698768	     25.30993670	     47.28639830	     24.17418110	      0.00000000	      0.00000000	     87.21960659	    -11.25269117	     26.12525283	     45.30139516	     37.34646445	      0.00000000	      0.00000000
      5.02000000	     -7.54574532	     -1.42100043	     -3.05014805	      0.18230129	      1.05962290	     -0.32143900	      0.00000000	      0.50000000	      0.00000000	      0.25000000	     58.91577809	     -1.61578129	      1.55792204	     59.21968712	      1.03357852	     -0.52261120	    -10.39951723	      0.00000000	      0.00000000	     58.63044341	     -7.21984924	      5.26685839	     99.08270321	      1.72931940	     -9.78532952	     -7.72142792	      0.00000000	      0.00000000	    -69.25592695	     -0.69942801	      1.88095982	     89.62648731	     -5.97877959	     26.04504652	     47.08004164	     24.20548996	      0.00000000	      0.00000000	     87.21561661	    -11.45238946	     26.84214111	     45.50865798	     37.48368714	      0.00000000	      0.00000000
      5.02500000	     -7.40509391	     -0.90077858	     -2.83839498	      0.18286108	      1.05873075	     -0.32015300	      0.00000000	      0.50000000	      0.00000000	      0.25000000	     57.60492075	     -2.06626097	      1.87394594	     57.50501555	      1.00365186	     -1.92299889	     -9.85444167	      0.00000000	      0.00000000	     59.76539667	     -6.64428220	      5.33242436	    101.17401495	      1.76581968	     -8.98923074	     -7.98390881	      0.00000000	      0.00000000	    -69.28916385	     -1.03195762	      1.32435628	     89.61263034	     -6.21004347	     26.16388703	     47.00070522	     24.20506638	      0.00000000	      0.00000000	     87.30814845	    -11.40497259	     27.01320263	     45.54353233	     37.51184257	      0.00000000	      0.00000000
      5.03000000	     -7.05955413	     -0.74215154	     -2.53361439	      0.18343031	      1.05843953	     -0.31889389	      0.00000000	      0.50000000	      0.00000000	      0.25000000	     55.89642185	     -2.35398364	      1.78687203	     55.62770722	      0.97088665	     -3.70191820	     -9.80037531	      0.00000000	      0.00000000	     60.74159885	     -6.31572340	      5.71129422	    103.21763394	      1.80148756	     -7.98761537	     -7.78589454	      0.00000000	      0.00000000	    -69.54978772	     -1.07027729	      1.14912007	     89.61149581	     -6.49929732	     26.88014527	     46.66739102	     24.21553837	      0.00000000	      0.00000000	     87.45236685	    -11.50078434	     27.58185864	     45.55038868	     37.58811438	      0.00000000	      0.00000000
      5.03500000	     -6.94544265	     -0.39748778	     -2.26313709	      0.18399539	      1.05781183	     -0.31755504	      0.00000000	      0.50000000	      0.00000000	      0.25000000	     54.50263209	     -2.74263470	      1.86717640	     53.89700255	      0.94068015	     -5.25117274	     -9.60307031	      0.00000000	      0.00000000	     61.97660184	     -5.86863268	      5.96872714	    105.16079932	      1.83540219	     -7.08056582	     -7.54339115	      0.00000000	      0.00000000	    -69.49108862	     -1.32609039	      0.84165152	     89.60965808	     -7.31209729	     28.76989438	     46.31294341	     24.39776116	      0.00000000	      0.00000000	     87.67917591	    -11.66798793	     29.29429947	     45.39692980	     37.78675802	      0.00000000	      0.00000000
      5.04000000	     -6.83841078	      0.16080719	     -1.95411488	      0.18457425	      1.05744440	     -0.31638213	      0.00000000	      0.50000000	      0.00000000	      0.25000000	     53.10792273	     -3.39132242	      1.99552272	     52.20339103	      0.91112105	     -6.53200246	     -8.98215590	      0.00000000	      0.00000000	     63.18890571	     -5.25995927	      5.95189342	    106.94887020	      1.86660992	     -6.30635805	     -7.75221908	      0.00000000	      0.00000000	    -69.52375985	     -1.61932297	      0.30432556	     89.59346299	     -7.54654061	     28.75368704	     46.21243246	     24.39122307	      0.00000000	      0.00000000	     87.78274340	    -11.52025994	     29.39106535	     45.43411441	     37.80442733	      0.00000000	      0.00000000
      5.04500000	     -6.57708108	      0.47729520	     -1.54400667	      0.18494295	      1.05746937	     -0.31527557	      0.00000000	      0.50000000	      0.00000000	      0.25000000	     51.42436628	     -3.92053587	      1.85930281	     50.38876903	      0.87944993	     -7.96645963	     -8.68514432	      0.00000000	      0.00000000	     64.29104470	     -4.68585133	      6.25990363	    108.65095170	      1.89631684	     -5.41638935	     -7.45596105	      0.00000000	      0.00000000	    -69.68697107	     -1.72282544	      0.00355561	     89.59803717	     -7.86059101	     29.02316715	     45.76429688	     24.37397632	      0.00000000	      0.00000000	     87.92851940	    -11.31262290	     29.73329458	     45.44025540	     37.84303082	      0.00000000	      0.00000000
      5.05000000	     -6.62019456	      1.02449578	     -1.17106830	      0.18524460	      1.05712037	     -0.31372550	      0.00000000	      0.50000000	      0.00000000	      0.25000000	     50.14845838	     -4.54133868	      2.00097472	     48.75708399	      0.85097165	     -9.01927695	     -8.14953157	      0.00000000	      0.00000000	     65.71330405	     -4.03233521	      6.31550340	    110.19136918	      1.92320220	     -4.78519156	     -7.59117887	      0.00000000	      0.00000000	    -69.58086673	     -2.05348686	     -0.59067255	     89.57607673	     -8.07982189	     29.02240451	     45.63423183	     24.36533010	      0.00000000	      0.00000000	     88.06821709	    -11.13985139	     29.83555025	     45.47910664	     37.85934091	      0.00000000	      0.00000000
      5.05500000	     -6.53392812	      1.40008620	     -0.69383746	      0.18557046	      1.05734841	     -0.31274378	      0.00000000	      0.50000000	      0.00000000	      0.25000000	     48.62026696	     -5.23590354	      1.64008915	     46.95579868	      0.81953329	    -10.56155493	     -7.53737606	      0.00000000	      0.00000000	     67.03506375	     -3.39196245	      6.49787727	    111.62571211	      1.94823621	     -4.16636367	     -7.40494935	      0.00000000	      0.00000000	    -69.61683983	     -2.07590777	     -0.93046109	     89.57411674	     -8.24068009	     29.25406969	     45.16304711	     24.33402154	      0.00000000	      0.00000000	     88.15051155	    -10.94886917	     30.08802018	     45.49002999	     37.88492912	      0.00000000	      0.00000000
